<mxfile host="app.diagrams.net" modified="2023-11-22T07:10:59.057Z" agent="Mozilla/5.0 (Macintosh; Intel Mac OS X 10_15_7) AppleWebKit/537.36 (KHTML, like Gecko) Chrome/119.0.0.0 Safari/537.36" etag="QWJIo-3w5KEIgnKjfjr4" version="22.1.3" type="github">
  <diagram name="第 1 页" id="ha4UxWZG4NeGhMg-woAB">
    <mxGraphModel dx="1434" dy="717" grid="1" gridSize="10" guides="1" tooltips="1" connect="1" arrows="1" fold="1" page="1" pageScale="1" pageWidth="827" pageHeight="1169" math="0" shadow="0">
      <root>
        <mxCell id="0" />
        <mxCell id="1" parent="0" />
        <mxCell id="mOGzLubXwul6hE994I_a-45" value="" style="edgeStyle=orthogonalEdgeStyle;rounded=0;orthogonalLoop=1;jettySize=auto;html=1;" edge="1" parent="1" source="mOGzLubXwul6hE994I_a-44" target="mOGzLubXwul6hE994I_a-43">
          <mxGeometry relative="1" as="geometry" />
        </mxCell>
        <mxCell id="mOGzLubXwul6hE994I_a-44" value="" style="rounded=0;whiteSpace=wrap;html=1;textOpacity=1;labelBorderColor=#FF6666;labelBackgroundColor=#FF6666;strokeColor=#FF6666;" vertex="1" parent="1">
          <mxGeometry x="90" y="230" width="580" height="1190" as="geometry" />
        </mxCell>
        <mxCell id="mOGzLubXwul6hE994I_a-3" value="" style="edgeStyle=orthogonalEdgeStyle;rounded=0;orthogonalLoop=1;jettySize=auto;html=1;" edge="1" parent="1" source="mOGzLubXwul6hE994I_a-1" target="mOGzLubXwul6hE994I_a-2">
          <mxGeometry relative="1" as="geometry" />
        </mxCell>
        <mxCell id="mOGzLubXwul6hE994I_a-1" value="脚本执行" style="rounded=1;whiteSpace=wrap;html=1;fontSize=12;glass=0;strokeWidth=1;shadow=0;" vertex="1" parent="1">
          <mxGeometry x="160" y="80" width="120" height="40" as="geometry" />
        </mxCell>
        <mxCell id="mOGzLubXwul6hE994I_a-5" value="" style="edgeStyle=orthogonalEdgeStyle;rounded=0;orthogonalLoop=1;jettySize=auto;html=1;" edge="1" parent="1" source="mOGzLubXwul6hE994I_a-2" target="mOGzLubXwul6hE994I_a-4">
          <mxGeometry relative="1" as="geometry" />
        </mxCell>
        <mxCell id="mOGzLubXwul6hE994I_a-2" value="读取策略配置csv文件、获取实例数据" style="rounded=1;whiteSpace=wrap;html=1;fontSize=12;glass=0;strokeWidth=1;shadow=0;" vertex="1" parent="1">
          <mxGeometry x="160" y="170" width="120" height="40" as="geometry" />
        </mxCell>
        <mxCell id="mOGzLubXwul6hE994I_a-7" value="" style="edgeStyle=orthogonalEdgeStyle;rounded=0;orthogonalLoop=1;jettySize=auto;html=1;" edge="1" parent="1" source="mOGzLubXwul6hE994I_a-4" target="mOGzLubXwul6hE994I_a-6">
          <mxGeometry relative="1" as="geometry" />
        </mxCell>
        <mxCell id="mOGzLubXwul6hE994I_a-4" value="循环实例数据" style="rounded=1;whiteSpace=wrap;html=1;fontSize=12;glass=0;strokeWidth=1;shadow=0;" vertex="1" parent="1">
          <mxGeometry x="160" y="250" width="120" height="40" as="geometry" />
        </mxCell>
        <mxCell id="mOGzLubXwul6hE994I_a-9" value="yes" style="edgeStyle=orthogonalEdgeStyle;rounded=0;orthogonalLoop=1;jettySize=auto;html=1;" edge="1" parent="1" source="mOGzLubXwul6hE994I_a-6" target="mOGzLubXwul6hE994I_a-8">
          <mxGeometry relative="1" as="geometry" />
        </mxCell>
        <mxCell id="mOGzLubXwul6hE994I_a-11" style="edgeStyle=orthogonalEdgeStyle;rounded=0;orthogonalLoop=1;jettySize=auto;html=1;" edge="1" parent="1" source="mOGzLubXwul6hE994I_a-6" target="mOGzLubXwul6hE994I_a-10">
          <mxGeometry relative="1" as="geometry" />
        </mxCell>
        <mxCell id="mOGzLubXwul6hE994I_a-12" value="no" style="edgeLabel;html=1;align=center;verticalAlign=middle;resizable=0;points=[];" vertex="1" connectable="0" parent="mOGzLubXwul6hE994I_a-11">
          <mxGeometry x="-0.1207" y="1" relative="1" as="geometry">
            <mxPoint as="offset" />
          </mxGeometry>
        </mxCell>
        <mxCell id="mOGzLubXwul6hE994I_a-6" value="实例LockMode在不在LockByExpiration, ManualLock,Released" style="rhombus;whiteSpace=wrap;html=1;shadow=0;fontFamily=Helvetica;fontSize=12;align=center;strokeWidth=1;spacing=6;spacingTop=-4;" vertex="1" parent="1">
          <mxGeometry x="121.25" y="330" width="197.5" height="90" as="geometry" />
        </mxCell>
        <mxCell id="mOGzLubXwul6hE994I_a-8" value="不检查" style="rounded=1;whiteSpace=wrap;html=1;fontSize=12;glass=0;strokeWidth=1;shadow=0;" vertex="1" parent="1">
          <mxGeometry x="414" y="350" width="126" height="45" as="geometry" />
        </mxCell>
        <mxCell id="mOGzLubXwul6hE994I_a-14" style="edgeStyle=orthogonalEdgeStyle;rounded=0;orthogonalLoop=1;jettySize=auto;html=1;" edge="1" parent="1" source="mOGzLubXwul6hE994I_a-10" target="mOGzLubXwul6hE994I_a-13">
          <mxGeometry relative="1" as="geometry" />
        </mxCell>
        <mxCell id="mOGzLubXwul6hE994I_a-16" style="edgeStyle=orthogonalEdgeStyle;rounded=0;orthogonalLoop=1;jettySize=auto;html=1;entryX=0.5;entryY=0;entryDx=0;entryDy=0;" edge="1" parent="1" source="mOGzLubXwul6hE994I_a-10" target="mOGzLubXwul6hE994I_a-15">
          <mxGeometry relative="1" as="geometry" />
        </mxCell>
        <mxCell id="mOGzLubXwul6hE994I_a-10" value="环境在默认配置中，并且BAK不在desc中，restore不在desc中" style="rhombus;whiteSpace=wrap;html=1;shadow=0;fontFamily=Helvetica;fontSize=12;align=center;strokeWidth=1;spacing=6;spacingTop=-4;" vertex="1" parent="1">
          <mxGeometry x="130" y="470" width="180" height="100" as="geometry" />
        </mxCell>
        <mxCell id="mOGzLubXwul6hE994I_a-13" value="不检查" style="rounded=1;whiteSpace=wrap;html=1;fontSize=12;glass=0;strokeWidth=1;shadow=0;" vertex="1" parent="1">
          <mxGeometry x="420" y="500" width="120" height="40" as="geometry" />
        </mxCell>
        <mxCell id="mOGzLubXwul6hE994I_a-18" style="edgeStyle=orthogonalEdgeStyle;rounded=0;orthogonalLoop=1;jettySize=auto;html=1;entryX=0;entryY=0.5;entryDx=0;entryDy=0;" edge="1" parent="1" source="mOGzLubXwul6hE994I_a-15" target="mOGzLubXwul6hE994I_a-17">
          <mxGeometry relative="1" as="geometry" />
        </mxCell>
        <mxCell id="mOGzLubXwul6hE994I_a-21" style="edgeStyle=orthogonalEdgeStyle;rounded=0;orthogonalLoop=1;jettySize=auto;html=1;" edge="1" parent="1" source="mOGzLubXwul6hE994I_a-15" target="mOGzLubXwul6hE994I_a-19">
          <mxGeometry relative="1" as="geometry" />
        </mxCell>
        <mxCell id="mOGzLubXwul6hE994I_a-15" value="实例今天是否需要进行备份检查" style="rhombus;whiteSpace=wrap;html=1;shadow=0;fontFamily=Helvetica;fontSize=12;align=center;strokeWidth=1;spacing=6;spacingTop=-4;" vertex="1" parent="1">
          <mxGeometry x="130" y="630" width="180" height="100" as="geometry" />
        </mxCell>
        <mxCell id="mOGzLubXwul6hE994I_a-17" value="不检查" style="rounded=1;whiteSpace=wrap;html=1;fontSize=12;glass=0;strokeWidth=1;shadow=0;" vertex="1" parent="1">
          <mxGeometry x="420" y="660" width="120" height="40" as="geometry" />
        </mxCell>
        <mxCell id="mOGzLubXwul6hE994I_a-23" style="edgeStyle=orthogonalEdgeStyle;rounded=0;orthogonalLoop=1;jettySize=auto;html=1;entryX=0;entryY=0.5;entryDx=0;entryDy=0;" edge="1" parent="1" source="mOGzLubXwul6hE994I_a-19" target="mOGzLubXwul6hE994I_a-22">
          <mxGeometry relative="1" as="geometry" />
        </mxCell>
        <mxCell id="mOGzLubXwul6hE994I_a-27" style="edgeStyle=orthogonalEdgeStyle;rounded=0;orthogonalLoop=1;jettySize=auto;html=1;" edge="1" parent="1" source="mOGzLubXwul6hE994I_a-19" target="mOGzLubXwul6hE994I_a-26">
          <mxGeometry relative="1" as="geometry" />
        </mxCell>
        <mxCell id="mOGzLubXwul6hE994I_a-19" value="检查策略配置是否和环境一致" style="rhombus;whiteSpace=wrap;html=1;shadow=0;fontFamily=Helvetica;fontSize=12;align=center;strokeWidth=1;spacing=6;spacingTop=-4;" vertex="1" parent="1">
          <mxGeometry x="130" y="790" width="180" height="100" as="geometry" />
        </mxCell>
        <mxCell id="mOGzLubXwul6hE994I_a-25" style="edgeStyle=orthogonalEdgeStyle;rounded=0;orthogonalLoop=1;jettySize=auto;html=1;entryX=0;entryY=0.5;entryDx=0;entryDy=0;" edge="1" parent="1" source="mOGzLubXwul6hE994I_a-22" target="mOGzLubXwul6hE994I_a-24">
          <mxGeometry relative="1" as="geometry" />
        </mxCell>
        <mxCell id="mOGzLubXwul6hE994I_a-22" value="备份策略异常数量+1" style="rounded=1;whiteSpace=wrap;html=1;fontSize=12;glass=0;strokeWidth=1;shadow=0;" vertex="1" parent="1">
          <mxGeometry x="424" y="820" width="120" height="40" as="geometry" />
        </mxCell>
        <mxCell id="mOGzLubXwul6hE994I_a-24" value="信息写入附件" style="rounded=1;whiteSpace=wrap;html=1;" vertex="1" parent="1">
          <mxGeometry x="770" y="870" width="20" height="510" as="geometry" />
        </mxCell>
        <mxCell id="mOGzLubXwul6hE994I_a-29" style="edgeStyle=orthogonalEdgeStyle;rounded=0;orthogonalLoop=1;jettySize=auto;html=1;" edge="1" parent="1" source="mOGzLubXwul6hE994I_a-26" target="mOGzLubXwul6hE994I_a-28">
          <mxGeometry relative="1" as="geometry" />
        </mxCell>
        <mxCell id="mOGzLubXwul6hE994I_a-32" style="edgeStyle=orthogonalEdgeStyle;rounded=0;orthogonalLoop=1;jettySize=auto;html=1;" edge="1" parent="1" source="mOGzLubXwul6hE994I_a-26" target="mOGzLubXwul6hE994I_a-31">
          <mxGeometry relative="1" as="geometry" />
        </mxCell>
        <mxCell id="mOGzLubXwul6hE994I_a-26" value="备份是否生成" style="rhombus;whiteSpace=wrap;html=1;shadow=0;fontFamily=Helvetica;fontSize=12;align=center;strokeWidth=1;spacing=6;spacingTop=-4;" vertex="1" parent="1">
          <mxGeometry x="130" y="950" width="180" height="100" as="geometry" />
        </mxCell>
        <mxCell id="mOGzLubXwul6hE994I_a-30" style="edgeStyle=orthogonalEdgeStyle;rounded=0;orthogonalLoop=1;jettySize=auto;html=1;entryX=0;entryY=0.5;entryDx=0;entryDy=0;" edge="1" parent="1" source="mOGzLubXwul6hE994I_a-28" target="mOGzLubXwul6hE994I_a-24">
          <mxGeometry relative="1" as="geometry" />
        </mxCell>
        <mxCell id="mOGzLubXwul6hE994I_a-28" value="备份缺失数+1" style="rounded=1;whiteSpace=wrap;html=1;fontSize=12;glass=0;strokeWidth=1;shadow=0;" vertex="1" parent="1">
          <mxGeometry x="414" y="980" width="130" height="40" as="geometry" />
        </mxCell>
        <mxCell id="mOGzLubXwul6hE994I_a-37" style="edgeStyle=orthogonalEdgeStyle;rounded=0;orthogonalLoop=1;jettySize=auto;html=1;entryX=0;entryY=0.5;entryDx=0;entryDy=0;" edge="1" parent="1" source="mOGzLubXwul6hE994I_a-31" target="mOGzLubXwul6hE994I_a-34">
          <mxGeometry relative="1" as="geometry" />
        </mxCell>
        <mxCell id="mOGzLubXwul6hE994I_a-38" style="edgeStyle=orthogonalEdgeStyle;rounded=0;orthogonalLoop=1;jettySize=auto;html=1;entryX=0;entryY=0.5;entryDx=0;entryDy=0;" edge="1" parent="1" source="mOGzLubXwul6hE994I_a-31" target="mOGzLubXwul6hE994I_a-35">
          <mxGeometry relative="1" as="geometry">
            <Array as="points">
              <mxPoint x="220" y="1290" />
            </Array>
          </mxGeometry>
        </mxCell>
        <mxCell id="mOGzLubXwul6hE994I_a-39" style="edgeStyle=orthogonalEdgeStyle;rounded=0;orthogonalLoop=1;jettySize=auto;html=1;entryX=0;entryY=0.5;entryDx=0;entryDy=0;" edge="1" parent="1" source="mOGzLubXwul6hE994I_a-31" target="mOGzLubXwul6hE994I_a-36">
          <mxGeometry relative="1" as="geometry">
            <Array as="points">
              <mxPoint x="220" y="1390" />
            </Array>
          </mxGeometry>
        </mxCell>
        <mxCell id="mOGzLubXwul6hE994I_a-31" value="备份状态判断" style="rhombus;whiteSpace=wrap;html=1;shadow=0;fontFamily=Helvetica;fontSize=12;align=center;strokeWidth=1;spacing=6;spacingTop=-4;" vertex="1" parent="1">
          <mxGeometry x="130" y="1160" width="180" height="100" as="geometry" />
        </mxCell>
        <mxCell id="mOGzLubXwul6hE994I_a-40" style="edgeStyle=orthogonalEdgeStyle;rounded=0;orthogonalLoop=1;jettySize=auto;html=1;entryX=0;entryY=0.5;entryDx=0;entryDy=0;" edge="1" parent="1" source="mOGzLubXwul6hE994I_a-34" target="mOGzLubXwul6hE994I_a-24">
          <mxGeometry relative="1" as="geometry" />
        </mxCell>
        <mxCell id="mOGzLubXwul6hE994I_a-34" value="备份缺失数+1" style="rounded=1;whiteSpace=wrap;html=1;fontSize=12;glass=0;strokeWidth=1;shadow=0;" vertex="1" parent="1">
          <mxGeometry x="414" y="1190" width="130" height="40" as="geometry" />
        </mxCell>
        <mxCell id="mOGzLubXwul6hE994I_a-41" style="edgeStyle=orthogonalEdgeStyle;rounded=0;orthogonalLoop=1;jettySize=auto;html=1;entryX=0;entryY=0.5;entryDx=0;entryDy=0;" edge="1" parent="1" source="mOGzLubXwul6hE994I_a-35" target="mOGzLubXwul6hE994I_a-24">
          <mxGeometry relative="1" as="geometry" />
        </mxCell>
        <mxCell id="mOGzLubXwul6hE994I_a-35" value="备份进行中数量+1" style="rounded=1;whiteSpace=wrap;html=1;fontSize=12;glass=0;strokeWidth=1;shadow=0;" vertex="1" parent="1">
          <mxGeometry x="414" y="1270" width="130" height="40" as="geometry" />
        </mxCell>
        <mxCell id="mOGzLubXwul6hE994I_a-42" style="edgeStyle=orthogonalEdgeStyle;rounded=0;orthogonalLoop=1;jettySize=auto;html=1;entryX=0;entryY=0.5;entryDx=0;entryDy=0;" edge="1" parent="1" source="mOGzLubXwul6hE994I_a-36" target="mOGzLubXwul6hE994I_a-24">
          <mxGeometry relative="1" as="geometry" />
        </mxCell>
        <mxCell id="mOGzLubXwul6hE994I_a-36" value="备份成功数量+1" style="rounded=1;whiteSpace=wrap;html=1;fontSize=12;glass=0;strokeWidth=1;shadow=0;" vertex="1" parent="1">
          <mxGeometry x="414" y="1370" width="130" height="40" as="geometry" />
        </mxCell>
        <mxCell id="mOGzLubXwul6hE994I_a-43" value="1.统计【备份检童恐盘总数，策略配置异常，快照缺失。快照未完成，快照完成数】数据添加到汇总sheet中&lt;br&gt;2.备份策略导常，备份缺失，备份未完成，添加到邮件正文&lt;br&gt;3.各项数据汇总至对应的附件sheet中【备份情况汇总表，策略配置异常，快照完成，快照缺失，快照未完成，特殊策略】&lt;br&gt;4.添加邮件附件，发送邮件给配置文件中配置的收件人" style="rounded=0;whiteSpace=wrap;html=1;align=left;" vertex="1" parent="1">
          <mxGeometry x="95" y="1480" width="570" height="90" as="geometry" />
        </mxCell>
      </root>
    </mxGraphModel>
  </diagram>
</mxfile>
